{"title":"Wings Sky Force Heroes (2014) 720p WEB-DL x264-N3kr4","uid":10541484,"size":1589067919,"categoryP":"video","categoryS":"hd___movies","magnet":"?xt=urn:btih:7d8743603f3921946ac5a7fc00ed2fc020ce6b58&amp;dn=Wings+Sky+Force+Heroes+%282014%29+720p+WEB-DL+x264-N3kr4&amp;tr=udp%3A%2F%2Ftracker.openbittorrent.com%3A80&amp;tr=udp%3A%2F%2Fopen.demonii.com%3A1337&amp;tr=udp%3A%2F%2Ftracker.coppersurfer.tk%3A6969&amp;tr=udp%3A%2F%2Fexodus.desync.com%3A6969","seeders":1,"leechers":0,"uploader":"Falcon.G13","files":2,"time":1405232834,"description":" &lt;a href=&quot;http://i.imgur.com/9fF4Wvq.jpg&quot; rel=&quot;nofollow&quot; target=&quot;_NEW&quot;&gt;http://i.imgur.com/9fF4Wvq.jpg&lt;/a&gt; &lt;a href=&quot;\nhttp://i.imgur.com/9r3Wu1e.jpg&quot; rel=&quot;nofollow&quot; target=&quot;_NEW&quot;&gt;\nhttp://i.imgur.com/9r3Wu1e.jpg&lt;/a&gt; &lt;a href=&quot;\nhttp://i.imgur.com/MyiWM51.jpg&quot; rel=&quot;nofollow&quot; target=&quot;_NEW&quot;&gt;\nhttp://i.imgur.com/MyiWM51.jpg&lt;/a&gt; &lt;a href=&quot;\nhttp://i.imgur.com/TfFLDaX.jpg&quot; rel=&quot;nofollow&quot; target=&quot;_NEW&quot;&gt;\nhttp://i.imgur.com/TfFLDaX.jpg&lt;/a&gt; &lt;a href=&quot;\nhttp://i.imgur.com/TiSFqLQ.jpg&quot; rel=&quot;nofollow&quot; target=&quot;_NEW&quot;&gt;\nhttp://i.imgur.com/TiSFqLQ.jpg&lt;/a&gt; &lt;a href=&quot;\nhttp://i.imgur.com/IxxupZq.jpg&quot; rel=&quot;nofollow&quot; target=&quot;_NEW&quot;&gt;\nhttp://i.imgur.com/IxxupZq.jpg&lt;/a&gt;\n\nGeneral\nComplete name : Wings Sky Force Heroes (2014) 720p WEB-DL x264-N3kr4.mp4\nFormat : MPEG-4\nFormat profile : Base Media\nCodec ID : isom\nFile size : 1.48 GiB\nDuration : 1h 22mn\nOverall bit rate : 2 584 Kbps\nWriting application : Lavf55.7.100\n\nVideo\nID : 1\nFormat : AVC\nFormat/Info : Advanced Video Codec\nFormat profile : &lt;a class=&quot;__cf_email__&quot; href=&quot;/cdn-cgi/l/email-protection&quot; data-cfemail=&quot;aae7cbc3c4eae69e849a&quot;&gt;[email&amp;#160;protected]&lt;/a&gt;&lt;script cf-hash='f9e31' type=&quot;text/javascript&quot;&gt;\n/* &lt;![CDATA[ */!function(){try{var t=&quot;currentScript&quot;in document?document.currentScript:function(){for(var t=document.getElementsByTagName(&quot;script&quot;),e=t.length;e--;)if(t[e].getAttribute(&quot;cf-hash&quot;))return t[e]}();if(t&amp;&amp;t.previousSibling){var e,r,n,i,c=t.previousSibling,a=c.getAttribute(&quot;data-cfemail&quot;);if(a){for(e=&quot;&quot;,r=parseInt(a.substr(0,2),16),n=2;a.length-n;n+=2)i=parseInt(a.substr(n,2),16)^r,e+=String.fromCharCode(i);e=document.createTextNode(e),c.parentNode.replaceChild(e,c)}}}catch(u){}}();/* ]]&gt; */&lt;/script&gt;\nFormat settings, CABAC : Yes\nFormat settings, ReFrames : 3 frames\nCodec ID : avc1\nCodec ID/Info : Advanced Video Coding\nDuration : 1h 22mn\nBit rate : 1 939 Kbps\nWidth : 1 280 pixels\nHeight : 720 pixels\nDisplay aspect ratio : 16:9\nFrame rate mode : Constant\nFrame rate : 24.000 fps\nColor space : YUV\nChroma subsampling : 4:2:0\nBit depth : 8 bits\nScan type : Progressive\nBits/(Pixel*Frame) : 0.088\nStream size : 1.11 GiB (75%)\nLanguage : English\n\nAudio\nID : 2\nFormat : AC-3\nFormat/Info : Audio Coding 3\nMode extension : CM (complete main)\nFormat settings, Endianness : Big\nCodec ID : ac-3\nDuration : 1h 22mn\nBit rate mode : Constant\nBit rate : 640 Kbps\nChannel(s) : 6 channels\nChannel positions : Front: L C R, Side: L R, LFE\nSampling rate : 48.0 KHz\nBit depth : 16 bits\nCompression mode : Lossy\nStream size : 375 MiB (25%)\nLanguage : English","torrent":{"xt":"urn:btih:7d8743603f3921946ac5a7fc00ed2fc020ce6b58","amp;dn":"Wings+Sky+Force+Heroes+%282014%29+720p+WEB-DL+x264-N3kr4","amp;tr":["udp%3A%2F%2Ftracker.openbittorrent.com%3A80","udp%3A%2F%2Fopen.demonii.com%3A1337","udp%3A%2F%2Ftracker.coppersurfer.tk%3A6969","udp%3A%2F%2Fexodus.desync.com%3A6969"],"infoHash":"7d8743603f3921946ac5a7fc00ed2fc020ce6b58","infoHashBuffer":{"type":"Buffer","data":[125,135,67,96,63,57,33,148,106,197,167,252,0,237,47,192,32,206,107,88]},"announce":[],"urlList":[]}}